<svg width="588px" height="500px" viewBox="0 0 588 500" version="1.1" xmlns="http://www.w3.org/2000/svg" xmlns:xlink="http://www.w3.org/1999/xlink">
    <g id="Page-1" stroke="none" stroke-width="1" fill="none" fill-rule="evenodd">
        <g id="folder-arrow-down-regular" fill="#565656" fill-rule="nonzero">
            <path d="M73.5,0 C32.9601562,0 0,32.03125 0,71.4285714 L0,428.571429 C0,467.96875 32.9601562,500 73.5,500 L514.5,500 C555.039844,500 588,467.96875 588,428.571429 L588,142.857143 C588,103.459821 555.039844,71.4285714 514.5,71.4285714 L332.932031,71.4285714 L283.664062,23.5491071 C268.160156,8.48214286 247.14375,0 225.208594,0 L73.5,0 Z M55,71.8636364 C55,62.0386364 63.2730769,54 73.3846154,54 L225.172596,54 C232.526442,54 239.535577,56.7911932 244.70625,61.8153409 L296.757692,112.391761 C305.375481,120.765341 317.095673,125.454545 329.275481,125.454545 L514.615385,125.454545 C524.726923,125.454545 533,133.493182 533,143.318182 L533,429.136364 C533,438.961364 524.726923,447 514.615385,447 L73.3846154,447 C63.2730769,447 55,438.961364 55,429.136364 L55,71.8636364 Z M321.426602,187.762797 C321.426602,172.931747 309.163794,161 293.921237,161 C278.678681,161 266.415872,172.931747 266.415872,187.762797 L266.415872,301.616198 L230.888109,267.047585 C220.115175,256.565489 202.69511,256.565489 192.036781,267.047585 C181.378452,277.52968 181.263847,294.479452 192.036781,304.850036 L274.552876,385.138428 C285.325811,395.620524 302.745875,395.620524 313.404204,385.138428 L395.920299,304.850036 C406.693234,294.36794 406.693234,277.418169 395.920299,267.047585 C385.147364,256.677001 367.7273,256.565489 357.068971,267.047585 L321.541208,301.616198 L321.541208,187.762797 L321.426602,187.762797 Z" id="Shape"></path>
        </g>
    </g>
</svg>
