<?xml version="1.0" encoding="utf-8"?>
<svg id="master-artboard" viewBox="0 0 1400 980" version="1.1" xmlns="http://www.w3.org/2000/svg" x="0px" y="0px" style="enable-background:new 0 0 1400 980;" width="1400px" height="980px"><defs><style id="ee-google-fonts">@import url(https://fonts.googleapis.com/css?family=Fjalla+One:400|Roboto:100,100italic,300,300italic,400,400italic,500,500italic,700,700italic,900,900italic);</style></defs>

































































































<g transform="matrix(2.5456462405457745, 0, 0, 2.5456462405457745, 209.99992965625194, 4.263256414560601e-14)"><g>
	<g id="Sign_Out">
		<path d="M180.455,360.91H24.061V24.061h156.394c6.641,0,12.03-5.39,12.03-12.03s-5.39-12.03-12.03-12.03H12.03&#10;&#9;&#9;&#9;C5.39,0.001,0,5.39,0,12.031V372.94c0,6.641,5.39,12.03,12.03,12.03h168.424c6.641,0,12.03-5.39,12.03-12.03&#10;&#9;&#9;&#9;C192.485,366.299,187.095,360.91,180.455,360.91z" style="fill: rgb(255, 255, 255);"/>
		<path d="M381.481,184.088l-83.009-84.2c-4.704-4.752-12.319-4.74-17.011,0c-4.704,4.74-4.704,12.439,0,17.179l62.558,63.46H96.279&#10;&#9;&#9;&#9;c-6.641,0-12.03,5.438-12.03,12.151c0,6.713,5.39,12.151,12.03,12.151h247.74l-62.558,63.46c-4.704,4.752-4.704,12.439,0,17.179&#10;&#9;&#9;&#9;c4.704,4.752,12.319,4.752,17.011,0l82.997-84.2C386.113,196.588,386.161,188.756,381.481,184.088z" style="fill: rgb(255, 255, 255);"/>
	</g>
	<g>
	</g>
	<g>
	</g>
	<g>
	</g>
	<g>
	</g>
	<g>
	</g>
	<g>
	</g>
</g><g>
</g><g>
</g><g>
</g><g>
</g><g>
</g><g>
</g><g>
</g><g>
</g><g>
</g><g>
</g><g>
</g><g>
</g><g>
</g><g>
</g><g>
</g></g></svg>