<svg xmlns="http://www.w3.org/2000/svg" viewBox="0 0 445.91211 86.39648"><defs><style>.e709cf02-0527-48bf-b8a1-5adf28344cd3{fill:#fff;}</style></defs><title>Asset 22</title><g id="bfea34a9-cc5e-4f40-beac-d02360c9c2c5" data-name="Layer 2"><g id="bccfe2e7-2f8a-4f32-8341-b7d0bb4735f7" data-name="Layer 1"><path class="e709cf02-0527-48bf-b8a1-5adf28344cd3" d="M0,2.16016A2.25577,2.25577,0,0,1,2.27979,0h3L53.15771,46.07812h.12012V3.47949a2.27849,2.27849,0,0,1,2.27979-2.28027H69.957a2.36045,2.36045,0,0,1,2.27979,2.28027V84.23633A2.25609,2.25609,0,0,1,69.957,86.39648H68.03711a3.53622,3.53622,0,0,1-1.56006-.60058L19.0791,38.1582H18.959V82.916a2.27849,2.27849,0,0,1-2.27978,2.28027H2.3999A2.36053,2.36053,0,0,1,.11963,82.916Z"/><path class="e709cf02-0527-48bf-b8a1-5adf28344cd3" d="M129.8374,0a43.19824,43.19824,0,1,1,0,86.39648A42.81506,42.81506,0,0,1,86.75928,43.31836,43.019,43.019,0,0,1,129.8374,0Zm0,67.19727a23.99933,23.99933,0,1,0-23.8789-23.87891A24.04464,24.04464,0,0,0,129.8374,67.19727Z"/><path class="e709cf02-0527-48bf-b8a1-5adf28344cd3" d="M195.83691,1.91992A2.29444,2.29444,0,0,1,197.99707,0H199.917a2.64765,2.64765,0,0,1,2.03955,1.19922l27.83887,51.83789h.24023L257.87451,1.19922A2.64852,2.64852,0,0,1,259.91455,0h1.91992a2.29351,2.29351,0,0,1,2.15967,1.91992l13.55957,80.63672a2.19945,2.19945,0,0,1-2.27978,2.63965H261.11426a2.4418,2.4418,0,0,1-2.27979-1.91992l-5.3999-37.07813h-.23975L233.03564,85.07617a2.80928,2.80928,0,0,1-2.04,1.32031h-2.16016a2.60867,2.60867,0,0,1-2.03955-1.32031L206.5166,46.19824h-.23974l-5.28028,37.07813a2.33409,2.33409,0,0,1-2.27978,1.91992H184.55762a2.19925,2.19925,0,0,1-2.27979-2.63965Z"/><path class="e709cf02-0527-48bf-b8a1-5adf28344cd3" d="M282.11719,82.07617,319.67578,1.31934A2.4359,2.4359,0,0,1,321.71533,0h1.2002a2.43733,2.43733,0,0,1,2.04,1.31934l37.55859,80.75683a2.11886,2.11886,0,0,1-2.04,3.12012H347.15479c-2.16016,0-3.12012-.71973-4.2002-3l-4.31982-9.47949H305.99609l-4.31982,9.59961a4.46862,4.46862,0,0,1-4.31982,2.87988H284.15723A2.11858,2.11858,0,0,1,282.11719,82.07617Zm49.31787-25.67871-9.11963-19.79883h-.11963l-9,19.79883Z"/><path class="e709cf02-0527-48bf-b8a1-5adf28344cd3" d="M372.355,3.47949a2.25621,2.25621,0,0,1,2.16016-2.28027H403.794a41.99871,41.99871,0,1,1,0,83.99707H374.51514A2.25621,2.25621,0,0,1,372.355,82.916Zm30.23926,63.958c13.55908,0,23.39892-10.67969,23.39892-24.35938,0-13.55957-9.83984-24.23925-23.39892-24.23925H391.07471V67.4375Z"/></g></g></svg>