<svg xmlns="http://www.w3.org/2000/svg" xmlns:xlink="http://www.w3.org/1999/xlink" width="55" height="56"><defs><path id="a" d="M0 0h55v14.667H0z"/><path id="c" d="M0 55.843h55V0H0"/></defs><g fill="none" fill-rule="evenodd"><path fill="#D32928" d="M41.498 43.141a5.344 5.344 0 0 0-5.347-5.347 5.344 5.344 0 0 0-5.347 5.347 5.344 5.344 0 0 0 5.347 5.347 5.344 5.344 0 0 0 5.347-5.347m7.056 11.225-1.182 1.182a.999.999 0 0 1-1.416 0l-4.165-4.165a1 1 0 0 1-.293-.71v-.68a8.645 8.645 0 0 1-5.347 1.837c-4.8 0-8.69-3.889-8.69-8.689 0-4.8 3.89-8.69 8.69-8.69 4.8 0 8.69 3.89 8.69 8.69a8.645 8.645 0 0 1-1.839 5.347h.681a1 1 0 0 1 .71.293l4.165 4.165a1.008 1.008 0 0 1-.004 1.42"/><g><mask id="b" fill="#fff"><use xlink:href="#a"/></mask><path fill="#D32928" d="M53.624 14.667c-.216 0-.436-.045-.64-.14L27.5 2.602 2.016 14.526c-.672.314-1.504.085-1.857-.512-.354-.598-.096-1.337.576-1.651L26.859.14c.401-.188.88-.188 1.281 0l26.125 12.222c.672.314.93 1.053.576 1.65-.246.416-.723.654-1.217.654" mask="url(#b)"/></g><path fill="#D32928" d="M52.25 19.556H2.75c-.76 0-1.375-.547-1.375-1.222 0-.675.616-1.223 1.375-1.223h49.5c.76 0 1.375.548 1.375 1.223s-.616 1.222-1.375 1.222M27.5 8.556c-1.516 0-2.75 1.096-2.75 2.444 0 1.348 1.234 2.445 2.75 2.445s2.75-1.097 2.75-2.445c0-1.348-1.234-2.444-2.75-2.444m0 7.333c-3.033 0-5.5-2.193-5.5-4.889 0-2.695 2.467-4.889 5.5-4.889s5.5 2.194 5.5 4.89c0 2.695-2.467 4.888-5.5 4.888M19.25 48.889H2.75c-.759 0-1.375-.547-1.375-1.222 0-.675.616-1.223 1.375-1.223h16.5c.76 0 1.375.548 1.375 1.223s-.615 1.222-1.375 1.222M14.8 25.667H8.576c-1.573 0-2.986-.777-3.69-2.027l-.614-1.093c-.34-.604-.065-1.338.614-1.64.68-.302 1.505-.057 1.845.547l.615 1.093c.235.416.706.675 1.23.675H14.8c.524 0 .995-.259 1.23-.675l.615-1.093c.339-.604 1.165-.849 1.844-.547.68.302.954 1.036.615 1.64l-.615 1.093c-.703 1.25-2.117 2.027-3.69 2.027M17.876 45.222c-.504 0-.99-.247-1.23-.675l-.615-1.094c-.235-.416-.706-.675-1.23-.675H8.575c-.524 0-.995.259-1.23.675l-.615 1.094c-.34.603-1.166.848-1.845.546-.679-.302-.954-1.036-.615-1.64l.615-1.093c.704-1.25 2.117-2.026 3.69-2.026H14.8c1.572 0 2.986.776 3.689 2.026l.615 1.093c.34.604.064 1.338-.615 1.64-.198.088-.407.13-.614.13"/><mask id="d" fill="#fff"><use xlink:href="#c"/></mask><path fill="#D32928" d="M6.875 41.556h2.75V24.444h-2.75zM13.75 41.556h2.75V24.444h-2.75zM31.3 25.667h-6.226c-1.572 0-2.986-.777-3.689-2.027l-.615-1.093c-.34-.604-.064-1.338.615-1.64.68-.302 1.505-.057 1.845.547l.615 1.093c.234.416.706.675 1.23.675H31.3c.525 0 .996-.258 1.23-.675l.615-1.093c.34-.604 1.166-.848 1.845-.547.68.302.955 1.036.615 1.64l-.615 1.093c-.703 1.25-2.117 2.027-3.69 2.027" mask="url(#d)"/><path fill="#D32928" d="M23.375 31.778h2.75v-7.334h-2.75zM30.25 31.778H33v-7.334h-2.75zM47.8 25.667h-6.226c-1.572 0-2.986-.777-3.69-2.027l-.614-1.093c-.34-.604-.065-1.338.615-1.64.679-.301 1.505-.057 1.845.547l.615 1.092c.234.418.705.676 1.23.676H47.8c.525 0 .996-.258 1.23-.675l.615-1.093c.34-.604 1.166-.848 1.845-.547.679.302.955 1.036.615 1.64l-.616 1.093c-.702 1.25-2.116 2.027-3.689 2.027" mask="url(#d)"/><path fill="#D32928" d="M39.875 28.111h2.75v-3.667h-2.75zM46.75 29.333h2.75v-4.889h-2.75z" mask="url(#d)"/></g></svg>